<?xml version="1.0" encoding="UTF-8"?>
<svg version="1.1" xmlns="http://www.w3.org/2000/svg" width="512" height="512">
<path d="M0 0 C5.50640233 2.76102594 8.33609527 6.4760614 10.8125 12.0625 C11.1432251 12.74207764 11.4739502 13.42165527 11.81469727 14.12182617 C13.7643593 18.15094681 15.49549947 22.22534816 17.1328125 26.390625 C20.46623458 35.33895705 20.46623458 35.33895705 26.76855469 42.12304688 C30.91649635 43.65335545 35.14895988 43.80593352 39.53320312 43.90332031 C44.08132712 44.0815722 48.56049601 44.79877992 53.0625 45.4375 C53.93044189 45.53683838 54.79838379 45.63617676 55.69262695 45.73852539 C62.68077306 46.62258016 68.60644112 48.3609479 73.4375 53.6875 C76.03056766 59.18480343 76.80291104 63.5994878 74.85546875 69.421875 C73.06898944 73.31379168 70.48996331 75.93683725 67.375 78.8125 C63.73817535 82.0513587 63.73817535 82.0513587 61 86 C61.67160156 86.09152344 62.34320313 86.18304688 63.03515625 86.27734375 C66.78169182 87.19053094 70.02823668 88.81194193 73.4375 90.5625 C74.13979736 90.92037598 74.84209473 91.27825195 75.56567383 91.64697266 C77.71690802 92.75274045 79.85999952 93.87266051 82 95 C82.94069336 95.4942749 82.94069336 95.4942749 83.90039062 95.99853516 C93.01301414 100.84362723 101.05756768 106.47744385 109 113 C109.57250488 113.46422363 110.14500977 113.92844727 110.73486328 114.40673828 C147.12985197 144.0511246 171.60527959 188.49170805 176.58398438 235.34155273 C177.12966058 241.92181189 177.23872386 248.52530429 177.3125 255.125 C177.33038574 256.15415527 177.34827148 257.18331055 177.36669922 258.24365234 C177.35457274 269.6026991 175.60504957 280.77579226 174 292 C175.17937889 292.01213028 175.17937889 292.01213028 176.38258362 292.02450562 C183.81219896 292.10262422 191.24162277 292.18996621 198.6710062 292.28752708 C202.49002552 292.33735599 206.30901897 292.38368652 210.12817383 292.421875 C213.81765833 292.45889806 217.50691904 292.50530274 221.19621086 292.55806351 C222.59988393 292.57651745 224.00360481 292.59165822 225.40735054 292.60334396 C227.38177147 292.62036078 229.35606556 292.6505247 231.33032227 292.68115234 C232.45173111 292.69447601 233.57313995 292.70779968 234.72853088 292.7215271 C239.95630833 293.16652422 243.87178178 294.06381892 247.9375 297.4375 C250.46721062 301.01691835 250.86287828 304.2427529 250.77807617 308.5690918 C248.97812185 316.50594718 243.30462513 323.13228862 238.6875 329.6875 C237.0699699 332.02259013 235.46002089 334.36245208 233.85835266 336.70845032 C232.86496986 338.15939329 231.86163658 339.60359409 230.84660339 341.03947449 C226.39448116 347.46848843 223.02902544 353.95478223 224 362 C225.78196979 368.70050631 229.29257292 374.18498494 233.203125 379.80859375 C233.6874852 380.5062384 234.1718454 381.20388306 234.67088318 381.92266846 C236.70388143 384.83416152 238.74657995 387.73770544 240.8203125 390.62036133 C251.32455239 405.28637842 251.32455239 405.28637842 250.60986328 413.82202148 C249.56695709 417.54650753 247.857885 419.41429452 245 422 C242.58225419 423.20887291 241.06668936 423.12059343 238.36669922 423.11352539 C236.92543167 423.11341209 236.92543167 423.11341209 235.45504761 423.11329651 C234.41542877 423.10813522 233.37580994 423.10297394 232.3046875 423.09765625 C231.24210724 423.0962413 230.17952698 423.09482635 229.08474731 423.09336853 C225.68146991 423.08775834 222.27825762 423.07520409 218.875 423.0625 C216.57161553 423.05748631 214.26823003 423.05292318 211.96484375 423.04882812 C206.30987351 423.0377856 200.65494141 423.02103752 195 423 C195.01047363 423.77077881 195.02094727 424.54155762 195.03173828 425.33569336 C195.07362863 428.86959498 195.0994306 432.4034441 195.125 435.9375 C195.14175781 437.14986328 195.15851563 438.36222656 195.17578125 439.61132812 C195.27264737 457.48312753 195.27264737 457.48312753 190.125 462.9375 C189.38636719 463.75541016 189.38636719 463.75541016 188.6328125 464.58984375 C183.04693892 469.4140073 176.15586772 468.33627269 169.19116211 468.31567383 C166.94140552 468.3125055 164.69295432 468.33601865 162.44335938 468.36132812 C161.01302249 468.36360046 159.58268207 468.36430492 158.15234375 468.36328125 C156.85288818 468.36626221 155.55343262 468.36924316 154.21459961 468.37231445 C151 468 151 468 149.11547852 466.66479492 C148 465 148 465 147 462 C140.73 461.67 134.46 461.34 128 461 C127.67 462.65 127.34 464.3 127 466 C123.64937711 468.23374859 122.57793073 468.25155517 118.66567516 468.25726891 C116.99546095 468.26694224 116.99546095 468.26694224 115.29150504 468.276811 C113.44893314 468.2721652 113.44893314 468.2721652 111.56913757 468.26742554 C110.26815449 468.27195665 108.96717141 468.27648776 107.6267646 468.28115618 C104.00799892 468.29342262 100.38932543 468.29312145 96.77054369 468.29076743 C92.87063514 468.29036018 88.97075651 468.30138969 85.07086182 468.31088257 C77.42709847 468.32751383 69.78336597 468.33299309 62.13958605 468.33410732 C55.92736597 468.33505686 49.71515608 468.3391624 43.50293922 468.34550858 C25.89838091 468.3631273 8.29384701 468.37234654 -9.31072018 468.37084763 C-10.26029922 468.37076772 -11.20987826 468.3706878 -12.18823242 468.37060547 C-13.13896817 468.37052371 -14.08970391 468.37044195 -15.06924983 468.37035771 C-30.47801353 468.36954477 -45.88667948 468.38868263 -61.2954149 468.4168822 C-77.10893937 468.44559467 -92.92241614 468.45942338 -108.73596734 468.45769465 C-117.61729221 468.45703015 -126.49851463 468.46254858 -135.37981606 468.48405075 C-142.94182111 468.50224112 -150.50367729 468.50662766 -158.06569473 468.4930319 C-161.9246959 468.48649115 -165.7834113 468.48642458 -169.64238548 468.5037384 C-173.82453666 468.52230933 -178.00602306 468.50994353 -182.18818665 468.49447632 C-184.02072029 468.50990701 -184.02072029 468.50990701 -185.89027482 468.52564943 C-193.96691629 468.45939982 -197.4531965 467.44828118 -203.25 461.8125 C-208.06136318 454.07995204 -207.24622432 444.70761335 -207.125 435.9375 C-207.11597656 434.69033203 -207.10695312 433.44316406 -207.09765625 432.15820312 C-207.07426209 429.10526496 -207.04148174 426.05273694 -207 423 C-207.58802399 423.01110306 -208.17604797 423.02220612 -208.78189087 423.03364563 C-214.91384662 423.14444628 -221.04551705 423.21975287 -227.17822266 423.2746582 C-229.46544957 423.29976942 -231.7525965 423.33386516 -234.03955078 423.37719727 C-237.33125565 423.43799581 -240.6218977 423.4662444 -243.9140625 423.48828125 C-245.44252304 423.52699089 -245.44252304 423.52699089 -247.00186157 423.56648254 C-254.94832766 423.56960684 -254.94832766 423.56960684 -258.63037109 420.59448242 C-262.22458457 416.6592149 -262.79138046 413.75167599 -262.74072266 408.48583984 C-261.04653123 400.5129772 -255.30757331 393.87189708 -250.6875 387.3125 C-249.0699699 384.97740987 -247.46002089 382.63754792 -245.85835266 380.29154968 C-244.86496986 378.84060671 -243.86163658 377.39640591 -242.84660339 375.96052551 C-238.39448116 369.53151157 -235.02902544 363.04521777 -236 355 C-237.78196979 348.29949369 -241.29257292 342.81501506 -245.203125 337.19140625 C-245.6874852 336.4937616 -246.1718454 335.79611694 -246.67088318 335.07733154 C-248.70388143 332.16583848 -250.74657995 329.26229456 -252.8203125 326.37963867 C-263.33049468 311.70532495 -263.33049468 311.70532495 -262.5793457 303.171875 C-261.53041712 299.2396084 -260.16673012 297.62771223 -257 295 C-252.35493083 293.38978573 -248.23098581 292.73937805 -243.33032227 292.68115234 C-242.04952286 292.66128265 -240.76872345 292.64141296 -239.44911194 292.62094116 C-238.07154513 292.60906842 -236.69397649 292.59740535 -235.31640625 292.5859375 C-233.89150396 292.56720445 -232.46661251 292.54762948 -231.04173279 292.5272522 C-227.31168033 292.47615031 -223.581592 292.43640801 -219.85137939 292.39910889 C-216.03689865 292.35893076 -212.22256432 292.30790177 -208.40820312 292.2578125 C-200.93890291 292.16131346 -193.46953123 292.07682646 -186 292 C-186.0889151 291.37428604 -186.1778302 290.74857208 -186.2694397 290.10389709 C-189.53384223 266.87779176 -189.53384223 266.87779176 -189.375 255.4375 C-189.36484863 254.31311523 -189.35469727 253.18873047 -189.34423828 252.03027344 C-188.55210922 208.56756443 -172.33840272 165.02991898 -142.21484375 133.3359375 C-140.29015729 131.30602127 -138.52008395 129.22544547 -136.75 127.0625 C-121.54444796 109.69485315 -97.18524376 92.63576488 -75 86 C-74.34 86 -73.68 86 -73 86 C-73.42410156 85.5153125 -73.84820312 85.030625 -74.28515625 84.53125 C-75.5220051 83.11770846 -76.75338046 81.69936664 -77.98046875 80.27734375 C-79.27620159 78.81619821 -80.61007343 77.38752943 -81.98828125 76.00390625 C-85.90141303 71.97735036 -88.00574716 68.95236983 -88.203125 63.23828125 C-87.73367228 58.06527339 -86.31086378 54.31086378 -82.625 50.625 C-77.60693159 47.5185767 -72.75672644 46.50717914 -66.9609375 45.74609375 C-66.19826569 45.64031509 -65.43559387 45.53453644 -64.64981079 45.42555237 C-62.22565613 45.09017348 -59.80045657 44.76331838 -57.375 44.4375 C-54.94259688 44.10687977 -52.5104759 43.77441656 -50.07876587 43.43873596 C-48.56893321 43.230702 -47.05866778 43.02577969 -45.54794312 42.82432556 C-42.57072584 42.41725008 -39.85891376 41.95297125 -37 41 C-35.72398323 38.87361928 -34.6300328 36.81578194 -33.56640625 34.5859375 C-33.24719711 33.93807281 -32.92798798 33.29020813 -32.59910583 32.62271118 C-31.57738679 30.54464542 -30.56951669 28.46022443 -29.5625 26.375 C-28.55641801 24.31259231 -27.54748743 22.25161802 -26.53660583 20.19155884 C-25.90875486 18.90982769 -25.28407826 17.62653464 -24.66322327 16.34140015 C-19.13577153 4.97780226 -14.05366617 -2.8532664 0 0 Z " fill="#010101" transform="translate(262,22)"/>
<path d="M0 0 C2.42945561 3.64418341 2.0828781 4.92923364 1.625 9.1875 C1.51414062 10.27417969 1.40328125 11.36085937 1.2890625 12.48046875 C1.19367188 13.31191406 1.09828125 14.14335937 1 15 C0.09121094 15.4125 -0.81757813 15.825 -1.75390625 16.25 C-22.3191877 25.66066837 -39.68035703 36.21984936 -56 52 C-56.68835938 52.63679688 -57.37671875 53.27359375 -58.0859375 53.9296875 C-66.83518417 62.1243722 -66.83518417 62.1243722 -71.28515625 72.6484375 C-71.06139998 75.1486751 -71.06139998 75.1486751 -70 78 C-68.1746875 78.37125 -68.1746875 78.37125 -66.3125 78.75 C-65.62800781 78.88921875 -64.94351563 79.0284375 -64.23828125 79.171875 C-60.87608416 78.91369582 -59.42181322 77.2680473 -57 75 C-55.72533358 73.49573529 -54.49633945 71.95174061 -53.3125 70.375 C-43.2104818 57.52131266 -31.03319871 47.78967397 -17.0625 39.5 C-16.35279053 39.07847656 -15.64308105 38.65695313 -14.91186523 38.22265625 C-11.03200785 35.98330628 -7.33358191 34.24785457 -3 33 C-3.04640625 34.01320312 -3.0928125 35.02640625 -3.140625 36.0703125 C-3.17816758 37.42184532 -3.21456506 38.77341028 -3.25 40.125 C-3.28351563 40.79015625 -3.31703125 41.4553125 -3.3515625 42.140625 C-3.45254085 47.29052067 -2.21402822 50.04068987 1 54 C4.94259787 57.40497089 7.67634865 58.38339967 12.88134766 58.26318359 C16.38207531 57.8283156 19.26967692 56.29938062 22.3125 54.625 C22.9832959 54.27574463 23.6540918 53.92648926 24.34521484 53.56665039 C28.28048304 51.50722636 32.1646268 49.35727616 36.05078125 47.20703125 C37.31764771 46.51649658 37.31764771 46.51649658 38.61010742 45.81201172 C40.25820257 44.91124717 41.89814545 43.99536603 43.52856445 43.06298828 C44.28484131 42.64903809 45.04111816 42.23508789 45.8203125 41.80859375 C46.48305176 41.43532959 47.14579102 41.06206543 47.82861328 40.67749023 C52.01651943 39.37082961 55.31649605 40.68724643 59.18798828 42.45874023 C60.30415527 43.06919189 61.42032227 43.67964355 62.5703125 44.30859375 C63.17382538 44.63537613 63.77733826 44.96215851 64.3991394 45.29884338 C66.31228883 46.33698876 68.21867966 47.38687673 70.125 48.4375 C71.41231876 49.13948241 72.70007558 49.84066212 73.98828125 50.54101562 C76.35197371 51.82627699 78.71233334 53.11697688 81.07080078 54.41186523 C82.03743652 54.93594971 83.00407227 55.46003418 84 56 C84.7101123 56.39453369 85.42022461 56.78906738 86.15185547 57.19555664 C90.55084817 59.11030974 94.9236329 58.39328798 99.25 56.8125 C102.8177811 54.46100791 105.09221079 51.81557843 107 48 C107.0716735 45.44842345 107.09308442 42.92527029 107.0625 40.375 C107.05573242 39.31539062 107.05573242 39.31539062 107.04882812 38.234375 C107.03703875 36.48954725 107.01910324 34.744763 107 33 C141.47139601 47.46947487 165.63658645 74.56705287 180.46484375 108.3359375 C190.67868125 133.48246752 193.57416091 166.67290813 186 193 C185.7848877 193.75539063 185.56977539 194.51078125 185.34814453 195.2890625 C181.33379607 208.85009301 175.52425606 222.00491029 168 234 C167.62068358 234.64672255 167.24136717 235.29344511 166.85055631 235.95976532 C163.22930906 241.53699267 163.22930906 241.53699267 160.01062882 242.74927735 C157.63424464 243.03797349 155.36711714 243.07664342 152.973526 243.02932739 C152.07495689 243.04321845 151.17638779 243.05710951 150.25058931 243.0714215 C147.24425133 243.10797108 144.24106873 243.08743834 141.23461914 243.06689453 C139.07760761 243.08101155 136.92061589 243.09850104 134.76365662 243.11911011 C128.90803246 243.16413575 123.05348842 243.15821099 117.19775701 243.14046717 C112.30940034 243.13025073 107.42124697 243.14482965 102.53291124 243.15941131 C91.00100831 243.19342122 79.4696346 243.18626626 67.93774414 243.15283203 C56.04024394 243.11898387 44.14421099 243.15066112 32.24687105 243.21527779 C22.03175274 243.26865634 11.81709137 243.28322561 1.60184759 243.26624763 C-4.49915888 243.25638529 -10.59928237 243.26083837 -16.70017815 243.30182266 C-22.43742351 243.33851861 -28.17255732 243.32664832 -33.90968895 243.27742386 C-36.01435541 243.26740164 -38.11918249 243.27440437 -40.22372055 243.29972076 C-56.1194233 243.47580145 -56.1194233 243.47580145 -60.74563789 239.8453331 C-62.58407854 237.27863905 -63.80876689 234.91379666 -65 232 C-65.85728545 230.51308256 -66.72947591 229.03451823 -67.625 227.5703125 C-71.98652906 219.55882993 -75.85506094 211.46637144 -78.9375 202.875 C-79.20755859 202.13781738 -79.47761719 201.40063477 -79.75585938 200.64111328 C-84.16206445 187.65396327 -85.50893177 174.2720045 -85.39111328 160.64282227 C-85.37497284 158.43378274 -85.39111537 156.22656455 -85.41015625 154.01757812 C-85.43140648 140.67344814 -83.52727773 128.00332554 -78.875 115.4375 C-77.00991822 110.30170162 -75.39863322 105.50526221 -75 100 C-76.33333333 97.33333333 -76.33333333 97.33333333 -79 96 C-82.59471004 95.75161619 -82.59471004 95.75161619 -86 97 C-91.6794031 104.90856882 -94.00584949 115.37965059 -96.25 124.75 C-96.41298584 125.42192383 -96.57597168 126.09384766 -96.74389648 126.78613281 C-102.10166499 150.24524044 -100.98101013 178.11465489 -94 201 C-93.61448975 202.2991333 -93.61448975 202.2991333 -93.22119141 203.62451172 C-89.50537491 215.87142319 -84.26509597 226.87339371 -78 238 C-77.01 239.98 -77.01 239.98 -76 242 C-81.94 242 -87.88 242 -94 242 C-102.62968277 224.70652503 -109.41671063 208.05261176 -113 189 C-113.16846436 188.36666748 -113.33692871 187.73333496 -113.51049805 187.08081055 C-115.57873949 178.68347393 -115.33644612 170.14529305 -115.31567383 161.55249023 C-115.31252723 158.83601206 -115.33598314 156.12064002 -115.36132812 153.40429688 C-115.39994242 142.84639025 -114.5559966 133.2862893 -112 123 C-111.80656006 122.13157471 -111.61312012 121.26314941 -111.41381836 120.3684082 C-102.23531381 79.33483992 -76.52844567 41.71652351 -41 19 C-40.42362793 18.63052246 -39.84725586 18.26104492 -39.25341797 17.88037109 C-11.03224426 0 -11.03224426 0 0 0 Z " fill="#FDFDFD" transform="translate(204,119)"/>
<path d="M0 0 C122.1 0 244.2 0 370 0 C370 32.34 370 64.68 370 98 C368.23915641 99.76084359 365.70958313 99.17153207 363.3203125 99.2109375 C361.58587891 99.25347656 361.58587891 99.25347656 359.81640625 99.296875 C357.36343111 99.34878982 354.91028303 99.3931108 352.45703125 99.4296875 C351.29816406 99.460625 350.13929688 99.4915625 348.9453125 99.5234375 C347.34453857 99.5531665 347.34453857 99.5531665 345.71142578 99.58349609 C343.00820016 99.79202978 343.00820016 99.79202978 341.19091797 101.27978516 C339.69342122 103.22670407 339.69342122 103.22670407 339 107 C332.4 107 325.8 107 319 107 C317.515 104.03 317.515 104.03 316 101 C313.46484029 99.73242015 311.70768163 99.87045522 308.86846066 99.86412811 C307.77479244 99.85927037 306.68112423 99.85441262 305.55431455 99.84940767 C304.34295554 99.84911169 303.13159653 99.8488157 301.88352966 99.84851074 C299.9647969 99.84216213 299.9647969 99.84216213 298.00730187 99.83568525 C294.44505941 99.82401579 290.88282976 99.81855418 287.32057202 99.81405044 C283.48346005 99.80811293 279.64636525 99.79644257 275.80926514 99.78541565 C269.15710844 99.76704618 262.50495137 99.75220884 255.8527813 99.73963928 C246.23368199 99.72137165 236.6146072 99.69670684 226.99552727 99.67026538 C211.38903454 99.62744733 195.78253507 99.58833726 180.17602539 99.55224609 C179.24135628 99.55008329 178.30668717 99.54792049 177.34369475 99.54569215 C169.75864379 99.52816829 162.17359243 99.51082341 154.58854103 99.49348927 C147.956895 99.47832701 141.32524914 99.46309441 134.69360352 99.44775391 C133.29284537 99.4445156 133.29284537 99.4445156 131.86378907 99.44121188 C116.31587055 99.40514714 100.76796435 99.36519802 85.22006279 99.32245111 C75.62015899 99.29624753 66.020259 99.27360018 56.42033649 99.25546753 C49.84799121 99.24283302 43.27566056 99.22671928 36.70333033 99.20781839 C32.90581734 99.19702548 29.10831862 99.18791967 25.31079292 99.18312263 C21.20366449 99.17790484 17.09659587 99.16509527 12.98948669 99.15148926 C11.77589696 99.15119327 10.56230722 99.15089728 9.31194204 99.15059233 C8.22088157 99.14573458 7.12982111 99.14087684 6.0056982 99.13587189 C5.05634236 99.13375592 4.10698652 99.13163995 3.12886232 99.12945986 C1 99 1 99 0 98 C0 65.66 0 33.32 0 0 Z " fill="#AEA6D7" transform="translate(71,376)"/>
<path d="M0 0 C0.66 0 1.32 0 2 0 C2.47832275 1.02883301 2.95664551 2.05766602 3.44946289 3.11767578 C5.2420001 6.96135504 7.05698411 10.79408048 8.87866211 14.62402344 C9.66144457 16.27773008 10.43824904 17.93428101 11.20874023 19.59375 C12.3224604 21.98965221 13.45784985 24.37423018 14.59765625 26.7578125 C15.10124413 27.85973434 15.10124413 27.85973434 15.61500549 28.98391724 C18.50547852 34.94029526 22.30005247 39.65824595 28.67675781 41.97070312 C29.51045898 42.07318359 30.34416016 42.17566406 31.203125 42.28125 C32.14607422 42.41015625 33.08902344 42.5390625 34.06054688 42.671875 C35.03056641 42.78015625 36.00058594 42.8884375 37 43 C37.96486328 43.12890625 38.92972656 43.2578125 39.92382812 43.390625 C43.86045631 43.91446109 47.80246884 44.38758105 51.74609375 44.85546875 C57.01956499 45.51025223 61.94155296 46.36095012 67 48 C62.41548995 53.50722443 57.53151628 58.58881972 52.4375 63.625 C51.69564453 64.36234375 50.95378906 65.0996875 50.18945312 65.859375 C44.54044257 71.47317356 44.54044257 71.47317356 42.43017578 73.53027344 C38.50576514 77.2183709 38.50576514 77.2183709 36.71459961 82.13891602 C36.71540607 90.57046422 38.08829665 98.66897354 39.5625 106.9375 C40.05241787 109.69507404 40.53116481 112.45428027 41.00390625 115.21484375 C41.32597046 117.02650024 41.32597046 117.02650024 41.65454102 118.87475586 C41.96492724 121.68270922 41.93619075 123.37598293 41 126 C40.01604248 125.49025635 39.03208496 124.9805127 38.01831055 124.45532227 C34.36856026 122.56527755 30.71734254 120.6780832 27.06567383 118.79174805 C25.48519336 117.97481763 23.90511231 117.15711401 22.32543945 116.33862305 C20.055245 115.1625154 17.78363031 113.98919276 15.51171875 112.81640625 C14.80536789 112.44971329 14.09901703 112.08302032 13.3712616 111.70521545 C7.32833785 108.59181718 2.76407758 107.15200594 -4 108 C-7.37672496 109.16840722 -10.43140442 110.78959726 -13.5625 112.5 C-15.30846074 113.41431653 -17.05455658 114.32837514 -18.80078125 115.2421875 C-19.66654785 115.70334961 -20.53231445 116.16451172 -21.42431641 116.63964844 C-25.33217713 118.70359156 -29.29010559 120.66334174 -33.25 122.625 C-34.56798715 123.28329623 -35.8857253 123.94209144 -37.203125 124.6015625 C-38.58757812 125.29378906 -38.58757812 125.29378906 -40 126 C-39.1062949 117.50454447 -38.09605091 109.12112593 -36.375 100.75 C-33.86363559 89.07722654 -33.86363559 89.07722654 -36.06640625 77.6640625 C-38.48843291 74.21910905 -41.49196861 71.51739473 -44.6875 68.80078125 C-49.16280829 64.91736857 -53.33695278 60.77565797 -57.5 56.5625 C-58.22703125 55.83095703 -58.9540625 55.09941406 -59.703125 54.34570312 C-61.47109499 52.56610176 -63.23666378 50.78419082 -65 49 C-61.23215171 46.6996489 -57.19748282 46.23413465 -52.91015625 45.59765625 C-51.30530603 45.34460714 -49.70048933 45.09134536 -48.09570312 44.83789062 C-45.57713329 44.44813243 -43.05810339 44.06183364 -40.53833008 43.67993164 C-38.09823546 43.30756018 -35.66048287 42.92205783 -33.22265625 42.53515625 C-32.09900414 42.37092918 -32.09900414 42.37092918 -30.95265198 42.2033844 C-25.35303167 41.30547308 -21.81803402 39.93793504 -17.93066406 35.79418945 C-15.60831047 32.43312004 -13.85346627 28.97898955 -12.109375 25.29296875 C-11.75989807 24.56757401 -11.41042114 23.84217926 -11.050354 23.09480286 C-9.94417049 20.79522216 -8.84697531 18.49148524 -7.75 16.1875 C-6.99798716 14.62015885 -6.24538896 13.05309842 -5.4921875 11.48632812 C-3.65466979 7.6607667 -1.8251966 3.83145422 0 0 Z " fill="#FCE259" transform="translate(255,37)"/>
<path d="M0 0 C0.61875 -0.0103125 1.2375 -0.020625 1.875 -0.03125 C5.80825467 0.95206367 8.8971287 2.87537882 11.19726562 6.26367188 C12.29895562 8.31196936 13.29053227 10.38149525 14.25 12.5 C14.75660156 13.56734375 14.75660156 13.56734375 15.2734375 14.65625 C15.9011231 15.98081488 16.52212448 17.30858604 17.13378906 18.640625 C17.41963867 19.25421875 17.70548828 19.8678125 18 20.5 C18.27585937 21.21792725 18.55171875 21.93585449 18.8359375 22.67553711 C19.84587857 24.67450828 19.84587857 24.67450828 21.96777344 25.18188477 C22.75700195 25.26752686 23.54623047 25.35316895 24.359375 25.44140625 C25.22820312 25.55033203 26.09703125 25.65925781 26.9921875 25.77148438 C27.90226562 25.86751953 28.81234375 25.96355469 29.75 26.0625 C42.79892969 27.51969316 42.79892969 27.51969316 47.8125 32.1875 C49.5066569 35.48664765 50.30136054 38.81816038 50 42.5 C48.21391985 47.42014532 45.51806755 49.99846493 41.65478516 53.29321289 C35.30433929 58.61734388 35.30433929 58.61734388 32.52734375 66.06640625 C33.13647249 69.62961031 34.04268354 73.01599585 35 76.5 C35.328125 80.09375 35.328125 80.09375 35.375 83.5625 C35.40335937 84.58472656 35.43171875 85.60695313 35.4609375 86.66015625 C34.78454071 90.82744831 32.58066871 93.31449847 29.25 95.8125 C23.83391228 97.46741569 19.43134435 96.98112407 14.45703125 94.49609375 C12.90016501 93.65919603 11.35198316 92.80595949 9.8125 91.9375 C4.41834162 88.68663649 4.41834162 88.68663649 -1.59375 87.46875 C-5.65535454 89.20943766 -9.43066765 91.42874931 -13.20898438 93.70507812 C-18.06193457 96.45757193 -21.41971421 97.0205927 -27 96.5 C-30.58941928 94.73915281 -32.53468863 93.11541181 -34.9375 89.9375 C-36.76187202 84.03511993 -35.75621724 78.17110208 -34.08984375 72.28515625 C-33.19299149 68.77700392 -32.66211583 66.11579947 -33 62.5 C-36.09201013 58.03939523 -39.80553476 54.94841411 -44 51.5 C-48.03646317 47.72739465 -49.78480913 45.78102319 -50.3125 40.1875 C-49.93790854 35.76732079 -48.83614013 33.87270719 -46 30.5 C-42.13003862 27.70844056 -38.82848225 26.9145869 -34.125 26.3125 C-32.95195312 26.15394531 -31.77890625 25.99539062 -30.5703125 25.83203125 C-27.02364483 25.50219892 -23.55967906 25.44082375 -20 25.5 C-19.74734375 24.66726562 -19.4946875 23.83453125 -19.234375 22.9765625 C-17.85303317 19.08607443 -16.15684671 15.52857652 -14.25 11.875 C-13.76660156 10.89273438 -13.76660156 10.89273438 -13.2734375 9.890625 C-10.49194634 4.56482409 -6.53070178 -0.10884503 0 0 Z " fill="#010000" transform="translate(451,61.5)"/>
<path d="M0 0 C0.61875 -0.0103125 1.2375 -0.020625 1.875 -0.03125 C6.162151 1.04053775 8.95932633 2.97449146 11.41699219 6.57714844 C12.8196378 9.05828615 14.11263204 11.56975369 15.375 14.125 C15.82488281 14.99640625 16.27476563 15.8678125 16.73828125 16.765625 C20 23.17009403 20 23.17009403 20 25.5 C20.90621094 25.54898438 21.81242187 25.59796875 22.74609375 25.6484375 C42.52839555 26.86258936 42.52839555 26.86258936 48 32.5 C50.53011146 35.99396345 50.42830771 39.28830749 50 43.5 C47.68460637 48.90258514 44.66473831 51.98795216 40.09765625 55.62890625 C37.26967862 58.15144123 35.0790604 60.29712317 33 63.5 C32.84942787 66.59172317 33.51576957 69.38313586 34.25 72.375 C35.64345158 78.49586508 36.24391519 83.28714793 35 89.5 C32.85293084 92.90569591 30.89582897 95.30960782 27 96.5 C20.06264328 97.13272309 16.19784 95.47711914 10.3125 91.9375 C5.22045767 88.67394359 5.22045767 88.67394359 -0.53125 87.46875 C-4.79590638 89.25018874 -8.82349252 91.44903648 -12.85351562 93.70507812 C-17.84957776 96.34892727 -21.34210258 97.04965846 -27 96.5 C-30.75212276 94.48497111 -32.63644095 93.04533858 -35 89.5 C-35.265625 87.109375 -35.265625 87.109375 -35.25 84.25 C-35.25386719 83.17878906 -35.25773437 82.10757813 -35.26171875 81.00390625 C-35 77.5 -35 77.5 -34.01953125 73.90234375 C-32.93935932 69.70951313 -32.39903637 66.81050894 -33 62.5 C-36.05252302 57.84974986 -40.2581436 54.33243331 -44.453125 50.7421875 C-47.35512142 48.23184026 -49.15355683 46.36759418 -50 42.5 C-50.23675727 38.33307205 -49.41514609 35.18202572 -47.25 31.625 C-43.59515949 28.17320619 -40.4161436 27.41890225 -35.48828125 27.3515625 C-30.08071393 27.18528007 -24.89357474 27.00371326 -20 24.5 C-16.04739968 20.06332077 -14.13449702 14.65083654 -12.0703125 9.16015625 C-9.9361541 3.67949221 -6.23553727 -0.10392562 0 0 Z " fill="#010100" transform="translate(61,61.5)"/>
<path d="M0 0 C2.42945561 3.64418341 2.0828781 4.92923364 1.625 9.1875 C1.51414062 10.27417969 1.40328125 11.36085937 1.2890625 12.48046875 C1.19367188 13.31191406 1.09828125 14.14335937 1 15 C0.09121094 15.4125 -0.81757813 15.825 -1.75390625 16.25 C-22.3191877 25.66066837 -39.68035703 36.21984936 -56 52 C-56.68835938 52.63679688 -57.37671875 53.27359375 -58.0859375 53.9296875 C-66.83518417 62.1243722 -66.83518417 62.1243722 -71.28515625 72.6484375 C-71.06139998 75.1486751 -71.06139998 75.1486751 -70 78 C-69.01 78.495 -69.01 78.495 -68 79 C-68.38671875 79.556875 -68.7734375 80.11375 -69.171875 80.6875 C-72.55437052 85.64402809 -75.43553137 90.57516251 -78 96 C-79.36125 95.9071875 -79.36125 95.9071875 -80.75 95.8125 C-84.51362823 96.0296324 -85.36073121 96.38670827 -88 99 C-89.17308433 101.56318927 -90.12406579 103.96381708 -91 106.625 C-91.25418701 107.37338135 -91.50837402 108.1217627 -91.77026367 108.89282227 C-93.5191756 114.18376437 -95.01230048 119.51959311 -96.3125 124.9375 C-96.47169922 125.59766113 -96.63089844 126.25782227 -96.79492188 126.93798828 C-102.08307475 150.36776693 -100.96854889 178.15550567 -94 201 C-93.61448975 202.2991333 -93.61448975 202.2991333 -93.22119141 203.62451172 C-89.50537491 215.87142319 -84.26509597 226.87339371 -78 238 C-77.01 239.98 -77.01 239.98 -76 242 C-81.94 242 -87.88 242 -94 242 C-102.62968277 224.70652503 -109.41671063 208.05261176 -113 189 C-113.16846436 188.36666748 -113.33692871 187.73333496 -113.51049805 187.08081055 C-115.57873949 178.68347393 -115.33644612 170.14529305 -115.31567383 161.55249023 C-115.31252723 158.83601206 -115.33598314 156.12064002 -115.36132812 153.40429688 C-115.39994242 142.84639025 -114.5559966 133.2862893 -112 123 C-111.80656006 122.13157471 -111.61312012 121.26314941 -111.41381836 120.3684082 C-102.23531381 79.33483992 -76.52844567 41.71652351 -41 19 C-40.42362793 18.63052246 -39.84725586 18.26104492 -39.25341797 17.88037109 C-11.03224426 0 -11.03224426 0 0 0 Z " fill="#F0EBEE" transform="translate(204,119)"/>
<path d="M0 0 C20.93177512 6.80282691 40.47842814 17.37354962 57 32 C57.50015625 32.43989258 58.0003125 32.87978516 58.515625 33.33300781 C86.21708042 57.79462717 103.96426989 90.09217901 112 126 C112.19577637 126.86641113 112.39155273 127.73282227 112.59326172 128.62548828 C114.33422006 137.48247793 114.37224916 146.33109544 114.37060547 155.32373047 C114.37494712 157.96779403 114.4112888 160.61013968 114.44921875 163.25390625 C114.52952099 175.587112 112.89642743 187.02490202 110 199 C109.8396376 199.66667191 109.67927521 200.33334381 109.51405334 201.0202179 C106.02575566 215.31382965 99.81852239 229.0021917 93 242 C87.06 242 81.12 242 75 242 C75.845625 240.494375 76.69125 238.98875 77.5625 237.4375 C83.93608197 225.69748226 89.34483018 213.87873973 93 201 C93.22993652 200.22849609 93.45987305 199.45699219 93.69677734 198.66210938 C97.42755099 185.77995256 98.46208175 173.33073375 98.4375 160 C98.43769638 158.89948303 98.43769638 158.89948303 98.43789673 157.7767334 C98.3940687 144.10468594 97.23828601 130.72972448 93.3125 117.5625 C93.05122314 116.67344971 92.78994629 115.78439941 92.52075195 114.8684082 C85.38029059 91.33931028 72.85713765 70.83353063 56 53 C55.25363281 52.18917969 54.50726563 51.37835938 53.73828125 50.54296875 C39.30753843 35.39665191 21.16756948 25.30755681 2.03515625 17.3125 C-1 16 -1 16 -2 15 C-2.31417794 13.05093313 -2.55215803 11.08928817 -2.75 9.125 C-2.92789062 7.52011719 -2.92789062 7.52011719 -3.109375 5.8828125 C-3 3 -3 3 -1.515625 1.1171875 C-0.76539063 0.56417969 -0.76539063 0.56417969 0 0 Z " fill="#DFDBDE" transform="translate(309,119)"/>
<path d="M0 0 C0.92791351 -0.0127597 1.85582703 -0.02551941 2.81185913 -0.03866577 C4.31965439 -0.04200424 4.31965439 -0.04200424 5.85791016 -0.04541016 C7.40425644 -0.05539536 7.40425644 -0.05539536 8.98184204 -0.06558228 C11.16577364 -0.07572108 13.3497363 -0.08039892 15.53369141 -0.08007812 C18.87665915 -0.08444611 22.21830166 -0.1207394 25.56103516 -0.15869141 C27.6808223 -0.16456029 29.80061572 -0.1685292 31.92041016 -0.17041016 C33.42213272 -0.19196671 33.42213272 -0.19196671 34.95419312 -0.21395874 C41.868471 -0.1684176 41.868471 -0.1684176 45.14941406 2.13574219 C47.066086 5.14473304 47.16544161 6.78719635 46.52197266 10.29052734 C43.72706298 13.98599266 42.29161392 15.17770874 37.6496582 15.8581543 C36.15243585 15.85736938 34.65505529 15.82950882 33.15869141 15.77880859 C32.36670853 15.77173386 31.57472565 15.76465912 30.75874329 15.75737 C28.24133877 15.72948978 25.7261991 15.66676934 23.20947266 15.60302734 C21.49791635 15.57793596 19.78632501 15.55512425 18.07470703 15.53466797 C13.88959612 15.47968481 9.7061677 15.39346152 5.52197266 15.29052734 C5.43633057 15.89002197 5.35068848 16.4895166 5.26245117 17.10717773 C4.015625 25.83496094 2.76879883 34.56274414 1.52197266 43.29052734 C2.81490234 43.23251953 4.10783203 43.17451172 5.43994141 43.11474609 C18.79119467 42.69148898 29.34362984 43.56031068 39.95947266 52.54052734 C48.829083 61.25175179 53.50041018 70.21487265 53.95947266 82.72802734 C53.65189355 94.61176546 48.20512804 105.42302017 39.68994141 113.61865234 C28.56333726 122.19916869 17.03454385 123.38962168 3.52197266 122.29052734 C0.04445878 121.48126547 -2.50876149 120.23548793 -5.47802734 118.29052734 C-6.21923828 117.88962891 -6.96044922 117.48873047 -7.72412109 117.07568359 C-17.5929617 111.33411528 -22.97303142 102.22696937 -25.84912109 91.38037109 C-26.73695538 87.01840263 -27.11151843 83.72496496 -26.47802734 79.29052734 C-24.41552734 76.66552734 -24.41552734 76.66552734 -21.47802734 75.29052734 C-17.78948441 75.29052734 -15.51932312 75.45749072 -12.60302734 77.79052734 C-11.4822755 80.28108699 -11.29025297 81.79602019 -11.10302734 84.47802734 C-10.50140194 91.51241668 -7.21417182 97.0017712 -2.04052734 101.72802734 C4.5178728 106.78696421 11.4644779 107.10975783 19.52197266 106.29052734 C26.23693664 104.58367957 30.81149515 101.10598729 34.52197266 95.29052734 C37.63802204 89.61317979 38.54396265 83.68278549 37.52197266 77.29052734 C34.78760433 69.2627024 30.91622357 64.51745352 23.35400391 60.68505859 C19.25185362 58.97762755 15.48388045 58.8328724 11.08447266 58.91552734 C10.33311035 58.92132813 9.58174805 58.92712891 8.80761719 58.93310547 C3.41646292 59.0598733 -0.53455575 60.09342886 -5.47802734 62.29052734 C-11.63977782 62.89660116 -11.63977782 62.89660116 -14.15454102 61.07836914 C-18.34466573 55.41810659 -15.23717264 44.66574482 -14.27099609 38.05224609 C-13.88513225 35.54433224 -13.4866762 33.03893964 -13.0793457 30.53442383 C-12.66382073 27.96748457 -12.26831448 25.39798806 -11.87451172 22.82763672 C-11.61202599 21.17315122 -11.34839433 19.51884704 -11.08349609 17.86474609 C-10.90985786 16.72860115 -10.90985786 16.72860115 -10.73271179 15.56950378 C-8.15811857 0.07599079 -8.15811857 0.07599079 0 0 Z " fill="#040404" transform="translate(283.47802734375,217.70947265625)"/>
<path d="M0 0 C2.59645431 2.30889911 4.2511538 4.56391237 6.0859375 7.5078125 C6.66730469 8.42304688 7.24867188 9.33828125 7.84765625 10.28125 C12.04888738 18.0064357 12.5067942 25.11426339 10.62890625 33.6171875 C5.4945751 50.81628972 -6.08896505 64.88060164 -16.6015625 79.1328125 C-17.90404309 80.90856286 -19.20611683 82.68461169 -20.5078125 84.4609375 C-22.9683405 87.81342235 -25.42974254 91.16524198 -27.8984375 94.51171875 C-28.39698242 95.1879126 -28.89552734 95.86410645 -29.40917969 96.56079102 C-30.6015625 98.1328125 -30.6015625 98.1328125 -31.6015625 99.1328125 C-30.28438232 99.14739502 -28.96720215 99.16197754 -27.61010742 99.17700195 C-22.72897012 99.23491963 -17.84829732 99.31215286 -12.9675293 99.39526367 C-10.85399914 99.42854378 -8.74037944 99.45656603 -6.62670898 99.47924805 C-3.59059444 99.51273722 -0.55530275 99.56505014 2.48046875 99.62109375 C3.42743118 99.62748367 4.37439362 99.6338736 5.35005188 99.64045715 C6.23073837 99.66025131 7.11142487 99.68004547 8.01879883 99.70043945 C9.18128899 99.71709404 9.18128899 99.71709404 10.36726379 99.73408508 C12.9479854 100.24069092 13.83663141 101.04144058 15.3984375 103.1328125 C16.00421258 107.22179426 15.92285637 109.32038767 13.66381836 112.82006836 C9.3594931 116.81453609 3.14486525 115.82229304 -2.34765625 115.76171875 C-3.59152603 115.76413071 -4.83539581 115.76654266 -6.11695862 115.76902771 C-9.41783609 115.76779854 -12.71751917 115.74276591 -16.01818848 115.70928955 C-18.03592132 115.69533423 -20.05281073 115.69888706 -22.07055664 115.70922852 C-25.95497953 115.72802373 -29.8382537 115.71856102 -33.72265625 115.69921875 C-34.92280869 115.70417862 -36.12296112 115.70913849 -37.35948181 115.71424866 C-43.67462868 115.62531965 -47.86469595 115.5172443 -52.6015625 111.1328125 C-54.03809917 108.25973916 -53.91543617 106.32896508 -53.6015625 103.1328125 C-52.30907362 100.86053366 -51.06397195 98.98769267 -49.4765625 96.9453125 C-49.03352783 96.35073242 -48.59049316 95.75615234 -48.1340332 95.14355469 C-47.15803102 93.83509394 -46.17604383 92.53108197 -45.18896484 91.23095703 C-42.34932121 87.47766614 -39.57621226 83.6751448 -36.7890625 79.8828125 C-35.59267914 78.26024615 -34.39606286 76.63785151 -33.19921875 75.015625 C-31.99985594 73.38812699 -30.80063635 71.76052342 -29.6015625 70.1328125 C-29.01874512 69.34229492 -28.43592773 68.55177734 -27.83544922 67.73730469 C-10.31422499 46.51502955 -10.31422499 46.51502955 -4.6015625 21.1328125 C-6.87331507 16.04930061 -9.91873228 12.21362185 -14.6015625 9.1328125 C-20.11756701 7.29414433 -26.51014538 7.02269009 -32.02734375 9.00390625 C-38.28599329 12.59879911 -40.52128254 17.50447939 -43.2265625 24.0078125 C-44.6015625 27.1328125 -44.6015625 27.1328125 -46.6015625 28.1328125 C-50.75320737 28.59410637 -52.77972067 28.79028597 -56.1015625 26.1328125 C-58.10684231 22.12225288 -57.82398672 19.29487591 -56.6015625 15.1328125 C-53.37397718 5.86844722 -47.11490554 -0.76279539 -38.59765625 -5.55859375 C-25.07843214 -11.46333961 -11.49408969 -8.24951182 0 0 Z " fill="#050505" transform="translate(232.6015625,223.8671875)"/>
<path d="M0 0 C19.47 0 38.94 0 59 0 C53.46423018 11.07153964 53.46423018 11.07153964 50.28100586 15.26538086 C38.17067471 32.32979016 36.88950408 46.0275991 37.50646973 66.38458252 C37.60152743 70.07951062 37.60867517 73.77472651 37.62304688 77.47070312 C37.65709042 84.65389152 37.83098752 91.81376065 38 99 C25.13 99 12.26 99 -1 99 C6 88 6 88 9.38671875 82.90234375 C10.2055957 81.66967773 10.2055957 81.66967773 11.04101562 80.41210938 C12.14407732 78.75424559 13.25352988 77.10061726 14.36914062 75.45117188 C21.91090027 64.0354049 25.05232584 53.63088975 23 40 C19.77359762 29.06262051 11.70370382 19.29924532 5.3359375 9.99755859 C4.64886719 8.99289551 3.96179688 7.98823242 3.25390625 6.953125 C2.62814697 6.04723633 2.0023877 5.14134766 1.35766602 4.20800781 C0 2 0 2 0 0 Z " fill="#8678C3" transform="translate(18,331)"/>
<path d="M0 0 C19.47 0 38.94 0 59 0 C57.32851701 4.17870748 55.70277634 7.17661903 53.2265625 10.859375 C52.47645418 11.98690711 51.72645778 13.11451369 50.9765625 14.2421875 C49.80504825 15.99213081 48.6313568 17.74056031 47.45507812 19.48730469 C38.17690544 33.02085485 38.17690544 33.02085485 35.4375 48.8125 C35.41365234 49.52986328 35.38980469 50.24722656 35.36523438 50.98632812 C35.39947233 63.96251362 43.67134448 74.52951391 50.8125 84.6875 C52.13688618 86.59195145 53.4581445 88.49851684 54.7775116 90.40644836 C55.59188808 91.5819451 56.40973664 92.75504563 57.23139954 93.92546082 C60 97.89130426 60 97.89130426 60 99 C47.13 99 34.26 99 21 99 C21.18755859 92.57466797 21.18755859 92.57466797 21.37890625 86.01953125 C23.28497599 44.32957216 23.28497599 44.32957216 4.88525391 8.32763672 C3 6 3 6 0 0 Z " fill="#8678C3" transform="translate(435,331)"/>
<path d="M0 0 C1.38928711 -0.01063477 1.38928711 -0.01063477 2.80664062 -0.02148438 C3.77408203 0.01009766 4.74152344 0.04167969 5.73828125 0.07421875 C7.22231445 0.10418945 7.22231445 0.10418945 8.73632812 0.13476562 C15.66075566 0.40514367 21.67773155 1.00208276 27.05078125 5.76171875 C32.90623171 12.12845594 34.52785734 16.71324973 34.4609375 25.35546875 C33.74631427 31.29024454 30.85104915 35.34270798 26.38671875 39.19921875 C24.26890776 40.70150832 22.69408167 41.76171875 20.05078125 41.76171875 C21.44625882 43.4703427 22.84218145 45.17860317 24.23828125 46.88671875 C25.05554688 47.89347656 25.8728125 48.90023437 26.71484375 49.9375 C28.46407272 52.05237047 30.24947329 54.06496913 32.11328125 56.07421875 C34.05078125 58.76171875 34.05078125 58.76171875 34.55078125 61.88671875 C33.97360764 65.20546698 33.68322279 66.62286 31.05078125 68.76171875 C27.60621751 69.53377614 26.29852875 69.78405318 23.05078125 68.76171875 C19.613383 66.13797566 16.8735328 63.02300492 14.05078125 59.76171875 C13.34953125 58.99988281 12.64828125 58.23804688 11.92578125 57.453125 C7.05078125 52.09652218 7.05078125 52.09652218 7.05078125 49.76171875 C6.39078125 49.76171875 5.73078125 49.76171875 5.05078125 49.76171875 C5.10878906 50.8703125 5.16679687 51.97890625 5.2265625 53.12109375 C5.27346954 54.58459327 5.3189687 56.04813838 5.36328125 57.51171875 C5.42612305 58.60613281 5.42612305 58.60613281 5.49023438 59.72265625 C5.57926637 63.6400639 5.4295773 65.3530512 2.72265625 68.2734375 C0.05078125 69.76171875 0.05078125 69.76171875 -3.01171875 69.82421875 C-6.93914899 68.40365888 -7.85105865 67.42167343 -9.94921875 63.76171875 C-10.56691335 59.51674701 -10.5332983 55.29929151 -10.515625 51.015625 C-10.52182358 49.77175522 -10.52802216 48.52788544 -10.53440857 47.24632263 C-10.54332271 43.94564478 -10.53220764 40.64571127 -10.51531982 37.34509277 C-10.51172423 35.3272934 -10.52564382 33.31041427 -10.54614258 31.29272461 C-10.5830197 27.40825499 -10.58565176 23.52523612 -10.578125 19.640625 C-10.59138321 18.44047256 -10.60464142 17.24032013 -10.61830139 16.00379944 C-10.51470023 6.7077078 -10.51470023 6.7077078 -7.71923828 3.00439453 C-4.80476349 0.64476423 -3.67967645 0.00178193 0 0 Z " fill="#030304" transform="translate(305.94921875,390.23828125)"/>
<path d="M0 0 C4.512732 3.37511046 5.87733674 8.08661884 7.75 13.19140625 C8.08999023 14.09189194 8.42998047 14.99237762 8.78027344 15.92015076 C9.8637379 18.79721714 10.93198135 21.67966899 12 24.5625 C12.7177666 26.47497874 13.43650691 28.38709234 14.15625 30.29882812 C15.83585441 34.76827284 17.50096021 39.24288072 19.1567688 43.72119141 C19.89144941 45.7066451 20.63075017 47.69038799 21.37084961 49.67382812 C21.73186768 50.64900391 22.09288574 51.62417969 22.46484375 52.62890625 C22.75738037 53.41724854 23.04991699 54.20559082 23.35131836 55.01782227 C24.29721067 57.9081872 24.64037205 60.01159711 24 63 C21.68262395 66.04569423 20.22174087 67.73181298 16.4375 68.5625 C13.04842618 67.78040604 12.06566821 66.82307989 10 64 C9.01 61.03 8.02 58.06 7 55 C-0.59 55 -8.18 55 -16 55 C-16.99 58.3 -17.98 61.6 -19 65 C-23 68 -23 68 -25.4375 68.5 C-29.2514826 67.75580827 -30.6808417 66.04803662 -33 63 C-33.8863901 57.03248856 -31.33985115 51.86268595 -29.203125 46.4140625 C-28.81308289 45.39831146 -28.42304077 44.38256042 -28.0211792 43.33602905 C-27.1952633 41.19094935 -26.36452243 39.04772199 -25.52929688 36.90625 C-24.25869633 33.64730509 -23.00308812 30.38290065 -21.75 27.1171875 C-20.94358668 25.02830653 -20.13632247 22.93975382 -19.328125 20.8515625 C-18.95504211 19.88360748 -18.58195923 18.91565247 -18.1975708 17.91836548 C-12.75494863 3.99701051 -12.75494863 3.99701051 -9.1875 -0.0625 C-5.8014601 -1.51365996 -3.50353055 -0.93844568 0 0 Z " fill="#030304" transform="translate(258,392)"/>
<path d="M0 0 C7.26 0 14.52 0 22 0 C22.02254906 12.76034185 22.04091395 25.52067057 22.05181217 38.28102779 C22.05704149 44.20550715 22.06414001 50.12997222 22.07543945 56.05444336 C22.08626661 61.76672571 22.09227647 67.47899428 22.09487724 73.19128609 C22.0967318 75.37588277 22.100353 77.56047865 22.10573006 79.7450695 C22.11293821 82.79352349 22.11399104 85.84191979 22.11352539 88.89038086 C22.11712067 89.80315796 22.12071594 90.71593506 22.12442017 91.65637207 C22.11405216 97.88594784 22.11405216 97.88594784 21 99 C13.74 99 6.48 99 -1 99 C-0.67 66.33 -0.34 33.66 0 0 Z " fill="#9B8ECD" transform="translate(419,376)"/>
<path d="M0 0 C3.12194002 2.39180889 4.55001809 3.79278221 5.5 7.671875 C4.47639119 11.6810095 3.12960848 13.23645841 -0.25 15.609375 C-5.39803615 15.70650776 -8.92740394 13.81800178 -13.328125 11.47265625 C-16.08601185 10.23384935 -18.28298204 10.19537249 -21.25 10.609375 C-22.24 11.269375 -23.23 11.929375 -24.25 12.609375 C-24.09092253 14.55993297 -24.09092253 14.55993297 -23.25 16.609375 C-21.28815052 17.86245651 -21.28815052 17.86245651 -18.8046875 18.6875 C-17.89203125 19.04457031 -16.979375 19.40164063 -16.0390625 19.76953125 C-14.12203284 20.48649006 -12.20280315 21.1975983 -10.28125 21.90234375 C-2.21880536 25.07537869 3.18138065 29.58102249 6.75 37.609375 C7.785136 44.01277442 6.51854907 49.35992982 2.75 54.609375 C-2.09456157 59.89968316 -6.75892291 62.26245834 -13.984375 62.98046875 C-24.42345373 63.29660896 -31.46909212 61.51807511 -39.8125 54.921875 C-42.60686501 52.27081076 -43.15151008 51.51548224 -43.5625 47.734375 C-43.25 44.609375 -43.25 44.609375 -41.6875 42.234375 C-38.19740709 39.9076464 -36.38674184 39.91991803 -32.25 40.609375 C-30.44140625 41.9609375 -30.44140625 41.9609375 -28.5625 43.609375 C-24.17990035 47.24435471 -20.43051642 47.21975624 -14.88671875 47.11328125 C-12.24373313 46.78619406 -12.24373313 46.78619406 -10.33203125 45.32421875 C-9.0480973 43.65517526 -9.0480973 43.65517526 -9.359375 41.54296875 C-11.63345605 36.60581909 -20.17882587 34.87564792 -24.9375 33.109375 C-26.55205078 32.53703125 -26.55205078 32.53703125 -28.19921875 31.953125 C-33.43211843 29.64823705 -36.69600436 26.71736628 -39.25 21.609375 C-40.96248553 17.09464043 -41.24837932 11.946099 -39.34375 7.48828125 C-36.09440309 1.9789719 -32.33588351 -1.91781696 -26.5 -4.703125 C-16.91691732 -6.73031557 -8.36881039 -5.17238975 0 0 Z " fill="#030304" transform="translate(395.25,396.390625)"/>
<path d="M0 0 C1.75086914 -0.03577148 1.75086914 -0.03577148 3.53710938 -0.07226562 C13.08419016 -0.05594583 13.08419016 -0.05594583 16.8671875 2.875 C19.0625 5.5625 19.0625 5.5625 19.25 9.125 C17.82403132 13.25280407 16.76151516 14.30090055 13.0625 16.5625 C10.26826836 17.02623876 7.57233352 16.94365402 4.75 16.8125 C3.63915039 16.78542969 3.63915039 16.78542969 2.50585938 16.7578125 C0.6908429 16.71097337 -1.12350166 16.63923789 -2.9375 16.5625 C-2.9375 20.1925 -2.9375 23.8225 -2.9375 27.5625 C-1.40029297 27.49289062 -1.40029297 27.49289062 0.16796875 27.421875 C1.52861656 27.38433989 2.88929605 27.34794159 4.25 27.3125 C4.92353516 27.27898437 5.59707031 27.24546875 6.29101562 27.2109375 C9.89560954 27.14060396 11.90988444 27.46951569 15.01171875 29.359375 C17.0625 31.5625 17.0625 31.5625 17.6875 35.0625 C17.0625 38.5625 17.0625 38.5625 15.01171875 40.765625 C11.3434467 43.0005987 8.40154898 43.01908426 4.25 42.8125 C3.55712891 42.79445313 2.86425781 42.77640625 2.15039062 42.7578125 C0.45382336 42.71101064 -1.24202476 42.63927624 -2.9375 42.5625 C-2.9375 46.1925 -2.9375 49.8225 -2.9375 53.5625 C-1.85210937 53.50449219 -0.76671875 53.44648438 0.3515625 53.38671875 C1.79683176 53.33979442 3.24214784 53.29429713 4.6875 53.25 C5.40035156 53.20810547 6.11320312 53.16621094 6.84765625 53.12304688 C10.84431492 53.03138039 13.36684538 53.36543809 16.58203125 55.85546875 C19.0625 58.5625 19.0625 58.5625 19.125 62.1875 C17.70906333 66.6851812 17.70906333 66.6851812 15.0625 68.5625 C12.015625 68.96655273 12.015625 68.96655273 8.3125 68.99609375 C7.65797852 69.0013356 7.00345703 69.00657745 6.32910156 69.01197815 C4.94728004 69.01839263 3.56540387 69.01706866 2.18359375 69.00854492 C0.06932476 69.00002749 -2.04224755 69.02880731 -4.15625 69.06054688 C-5.49999919 69.06215888 -6.84375316 69.06158137 -8.1875 69.05859375 C-10.02054688 69.06137329 -10.02054688 69.06137329 -11.890625 69.06420898 C-14.9375 68.5625 -14.9375 68.5625 -16.60168457 66.89979553 C-18.2748041 63.97231414 -18.33031374 62.0285837 -18.35742188 58.6640625 C-18.37333374 57.47603027 -18.38924561 56.28799805 -18.40563965 55.06396484 C-18.40584106 53.78473145 -18.40604248 52.50549805 -18.40625 51.1875 C-18.41386353 49.87088379 -18.42147705 48.55426758 -18.42932129 47.19775391 C-18.44275375 44.41365023 -18.44434017 41.62983009 -18.43847656 38.84570312 C-18.43257521 35.28088205 -18.46319232 31.71742052 -18.50359344 28.15286255 C-18.53567924 24.74769781 -18.53135419 21.34281554 -18.53125 17.9375 C-18.54764526 16.6582666 -18.56404053 15.3790332 -18.58093262 14.06103516 C-18.5716272 12.87300293 -18.56232178 11.6849707 -18.55273438 10.4609375 C-18.55478882 9.41599121 -18.55684326 8.37104492 -18.55895996 7.29443359 C-16.56364706 -1.47694782 -7.04133373 -0.06587929 0 0 Z " fill="#040405" transform="translate(191.9375,390.4375)"/>
<path d="M0 0 C6.47637974 0.42308008 12.82978577 2.05809603 19.125 3.5625 C14.54048995 9.06972443 9.65651628 14.15131972 4.5625 19.1875 C3.82064453 19.92484375 3.07878906 20.6621875 2.31445312 21.421875 C-3.33455743 27.03567356 -3.33455743 27.03567356 -5.44482422 29.09277344 C-9.36923486 32.7808709 -9.36923486 32.7808709 -11.16040039 37.70141602 C-11.15959393 46.13296422 -9.78670335 54.23147354 -8.3125 62.5 C-7.82258213 65.25757404 -7.34383519 68.01678027 -6.87109375 70.77734375 C-6.65638428 71.98511475 -6.4416748 73.19288574 -6.22045898 74.43725586 C-5.91007276 77.24520922 -5.93880925 78.93848293 -6.875 81.5625 C-15.24914532 79.05015579 -23.73237349 75.9920305 -29.875 69.5625 C-32.22673862 64.40867452 -33.20179692 59.34924108 -33.875 53.75 C-33.95809418 53.05969696 -34.04118835 52.36939392 -34.12680054 51.65817261 C-35.99354942 34.58205622 -35.99354942 34.58205622 -32.23608398 29.2265625 C-31.53813721 28.55367187 -30.84019043 27.88078125 -30.12109375 27.1875 C-29.34830078 26.42953125 -28.57550781 25.6715625 -27.77929688 24.890625 C-26.96525391 24.12234375 -26.15121094 23.3540625 -25.3125 22.5625 C-24.52552734 21.79421875 -23.73855469 21.0259375 -22.92773438 20.234375 C-18.58313907 16.02230239 -14.1328191 11.98502393 -9.48242188 8.11303711 C-7.58443806 6.43018767 -7.58443806 6.43018767 -5.9375 3.125 C-3.875 0.5625 -3.875 0.5625 0 0 Z " fill="#FAD002" transform="translate(302.875,81.4375)"/>
<path d="M0 0 C0.66 0 1.32 0 2 0 C2.77923828 1.68029297 2.77923828 1.68029297 3.57421875 3.39453125 C4.27788964 4.86754898 4.98235885 6.34018553 5.6875 7.8125 C6.19700195 8.91948242 6.19700195 8.91948242 6.71679688 10.04882812 C8.81069797 14.3736145 10.32034441 17.19195125 15 19 C17.7588306 19.58658459 20.50705217 19.91422581 23.3125 20.1875 C24.42334961 20.3102832 24.42334961 20.3102832 25.55664062 20.43554688 C27.36994923 20.63442588 29.18484969 20.81869827 31 21 C29.07577497 25.60140767 25.65479294 28.40519631 22.09375 31.78125 C18.80168969 35.26985122 17.66984201 37.89149623 17.796875 42.71875 C18.25355724 47.8476428 19.14525717 52.92496443 20 58 C19.02160156 57.4946875 18.04320312 56.989375 17.03515625 56.46875 C6.98419229 50.96021462 6.98419229 50.96021462 -4 51 C-8.81884529 53.09022563 -13.4146348 55.4431534 -18 58 C-17.9278125 57.41734375 -17.855625 56.8346875 -17.78125 56.234375 C-17.47083907 53.49241175 -17.22975613 50.74989372 -17 48 C-16.8453125 46.48792969 -16.8453125 46.48792969 -16.6875 44.9453125 C-16.34793873 39.38499664 -16.41379366 35.91441892 -20.1875 31.625 C-21.44524276 30.40304667 -22.7157351 29.19404794 -24 28 C-24.99772238 26.84916181 -25.97931733 25.68396134 -26.9375 24.5 C-27.618125 23.675 -28.29875 22.85 -29 22 C-24.16346887 20.52801226 -19.43185989 19.50893743 -14.4296875 18.7578125 C-9.86221373 17.33323065 -7.19353127 14.68884549 -4.98046875 10.546875 C-4.37032468 9.28722273 -3.77280241 8.02138536 -3.1875 6.75 C-2.87619141 6.1003125 -2.56488281 5.450625 -2.24414062 4.78125 C-1.48494554 3.19278029 -0.74089481 1.59708737 0 0 Z " fill="#FAC264" transform="translate(450,82)"/>
<path d="M0 0 C0.66 0 1.32 0 2 0 C2.54269531 1.04800781 3.08539063 2.09601563 3.64453125 3.17578125 C4.36689559 4.55484044 5.08956801 5.93373829 5.8125 7.3125 C6.16892578 8.00279297 6.52535156 8.69308594 6.89257812 9.40429688 C7.24384766 10.07138672 7.59511719 10.73847656 7.95703125 11.42578125 C8.27647705 12.03848877 8.59592285 12.65119629 8.92504883 13.2824707 C10.55065221 15.87981792 11.92880995 17.65293277 14.90112305 18.6159668 C15.59761963 18.72593994 16.29411621 18.83591309 17.01171875 18.94921875 C17.76904297 19.07490234 18.52636719 19.20058594 19.30664062 19.33007812 C20.09232422 19.44802734 20.87800781 19.56597656 21.6875 19.6875 C22.88342773 19.88182617 22.88342773 19.88182617 24.10351562 20.08007812 C26.06728614 20.39757396 28.03344511 20.70023325 30 21 C30 24 30 24 27.84765625 26.41015625 C26.92855469 27.28542969 26.00945312 28.16070312 25.0625 29.0625 C20.48807802 33.00780905 20.48807802 33.00780905 18.8671875 38.46875 C18.88412779 45.04158206 19.19169222 51.47580148 20 58 C19.02160156 57.4946875 18.04320312 56.989375 17.03515625 56.46875 C6.99433703 50.97837918 6.99433703 50.97837918 -4 51 C-7.02151896 52.41166013 -9.86486902 53.95586978 -12.71484375 55.6875 C-15 57 -15 57 -17 57 C-17.07130496 52.72170263 -17.06651286 49.13273734 -16 45 C-15.57859444 40.44881999 -15.72998058 37.42238977 -18.51171875 33.6796875 C-21.23389606 30.60741389 -24.19495443 27.77639806 -27.171875 24.953125 C-29 23 -29 23 -29 21 C-27.75863281 20.84144531 -26.51726563 20.68289062 -25.23828125 20.51953125 C-23.59619755 20.28494786 -21.95427852 20.04920978 -20.3125 19.8125 C-19.49587891 19.71130859 -18.67925781 19.61011719 -17.83789062 19.50585938 C-12.37579494 18.68765071 -9.46518962 17.58628038 -6 13 C-4.15000997 9.69058675 -4.15000997 9.69058675 -2.6875 6.1875 C-2.17574219 5.02605469 -1.66398437 3.86460938 -1.13671875 2.66796875 C-0.76160156 1.78753906 -0.38648437 0.90710938 0 0 Z " fill="#FAC265" transform="translate(60,82)"/>
<path d="M0 0 C2.43241105 2.38302199 4.16024789 5.14792198 6 8 C7.28695386 9.83664467 8.57863269 11.66998752 9.875 13.5 C10.91802011 14.9990592 11.960179 16.49871997 13 18 C13.68707031 16.95199219 14.37414062 15.90398437 15.08203125 14.82421875 C15.99200238 13.44519033 16.90216888 12.06629081 17.8125 10.6875 C18.26431641 9.99720703 18.71613281 9.30691406 19.18164062 8.59570312 C19.62314453 7.92861328 20.06464844 7.26152344 20.51953125 6.57421875 C20.92276611 5.96151123 21.32600098 5.34880371 21.74145508 4.7175293 C25.04103827 0.21460635 25.04103827 0.21460635 27.9375 -0.43359375 C33.45348837 -0.4440407 33.45348837 -0.4440407 36 1.625 C37.27979703 4.66451795 37.28940615 6.71398685 37 10 C35.54711914 12.53173828 35.54711914 12.53173828 33.53515625 15.0703125 C22.93125043 29.34219113 19.27904546 39.11783695 20.14453125 57.265625 C20.30123732 62.43692525 20.30123732 62.43692525 18.99389648 64.88061523 C16.97894653 66.98561466 15.27627482 67.93935431 12.4375 68.5625 C9.26189019 67.82966697 8.04727693 66.48597913 6 64 C4.65635834 61.31271667 5.00697657 59.38522907 5.140625 56.3828125 C5.51124945 39.45330148 3.08613188 29.07009544 -7.54956055 15.82226562 C-10.44823386 12.18050538 -12.01867545 10.08317625 -11.9375 5.375 C-11 2 -11 2 -9.375 0 C-5.70189521 -1.54657044 -3.7854975 -1.24007677 0 0 Z " fill="#030304" transform="translate(122,392)"/>
<path d="M0 0 C5.61 0.66 11.22 1.32 17 2 C14.68592039 6.62815921 11.80764835 9.26028144 8.09375 12.78125 C4.80168969 16.26985122 3.66984201 18.89149623 3.796875 23.71875 C4.25355724 28.8476428 5.14525717 33.92496443 6 39 C5.02160156 38.50628906 4.04320312 38.01257813 3.03515625 37.50390625 C-4.01380682 34.03023048 -9.99421083 31.14045244 -18 31 C-18.30485617 29.27650623 -18.56754187 27.54552152 -18.8125 25.8125 C-18.96332031 24.84957031 -19.11414063 23.88664062 -19.26953125 22.89453125 C-18.88515332 18.76664655 -17.09142417 17.69213237 -14 15 C-12.89342754 13.9205109 -11.79481169 12.83282202 -10.703125 11.73828125 C-10.13722656 11.17689453 -9.57132812 10.61550781 -8.98828125 10.03710938 C-8.41464844 9.46798828 -7.84101563 8.89886719 -7.25 8.3125 C-6.36634766 7.44141602 -6.36634766 7.44141602 -5.46484375 6.55273438 C-2.35093236 3.56844684 -2.35093236 3.56844684 0 0 Z " fill="#F5B35D" transform="translate(464,101)"/>
<path d="M0 0 C1.37373565 0.20572853 2.74492763 0.42904986 4.11328125 0.66796875 C4.81517578 0.77689453 5.51707031 0.88582031 6.24023438 0.99804688 C7.97116065 1.26887208 9.69885445 1.56021312 11.42578125 1.85546875 C11.42578125 4.85546875 11.42578125 4.85546875 9.2734375 7.265625 C8.35433594 8.14089844 7.43523437 9.01617187 6.48828125 9.91796875 C1.91385927 13.8632778 1.91385927 13.8632778 0.29296875 19.32421875 C0.30990904 25.89705081 0.61747347 32.33127023 1.42578125 38.85546875 C0.43578125 38.36175781 -0.55421875 37.86804688 -1.57421875 37.359375 C-2.90725665 36.71163123 -4.24060693 36.06453008 -5.57421875 35.41796875 C-6.22261719 35.09248047 -6.87101562 34.76699219 -7.5390625 34.43164062 C-12.27092148 32.15941131 -16.33860608 31.27034431 -21.57421875 30.85546875 C-23.05937445 26.40000166 -23.97818808 23.38152701 -22.57421875 18.85546875 C-21.03955078 16.86669922 -21.03955078 16.86669922 -19.08203125 14.97265625 C-18.37691406 14.28042969 -17.67179687 13.58820313 -16.9453125 12.875 C-16.20410156 12.16730469 -15.46289062 11.45960937 -14.69921875 10.73046875 C-13.96574219 10.01503906 -13.23226562 9.29960938 -12.4765625 8.5625 C-11.11143352 7.23218305 -9.74223314 5.90602197 -8.36767578 4.58544922 C-6.5709808 2.90236193 -6.5709808 2.90236193 -5.06274414 1.12036133 C-3.57421875 -0.14453125 -3.57421875 -0.14453125 0 0 Z " fill="#F5B35D" transform="translate(78.57421875,101.14453125)"/>
<path d="M0 0 C0.66 0 1.32 0 2 0 C4.13871503 4.39536275 6.27489377 8.79194518 8.40869141 13.18969727 C9.13552713 14.68678373 9.86306499 16.18352952 10.59130859 17.67993164 C11.63562155 19.82610134 12.677435 21.97346818 13.71875 24.12109375 C14.21091003 25.13048256 14.21091003 25.13048256 14.7130127 26.16026306 C17 30.88612829 17 30.88612829 17 32 C-1.19757366 30.96013865 -1.19757366 30.96013865 -4.5625 27.30078125 C-6.79523566 24.11549261 -8.06654984 22.21154837 -7.84765625 18.2265625 C-6.80745556 14.26708891 -5.23194243 10.79205859 -3.4375 7.125 C-3.10814453 6.43664063 -2.77878906 5.74828125 -2.43945312 5.0390625 C-1.63304639 3.3561267 -0.81745506 1.67759707 0 0 Z " fill="#F8CF02" transform="translate(255,37)"/>
<path d="M0 0 C19.35161595 3.75276665 38.90327899 25.55660108 52 39 C47.74866573 39 45.53136405 36.56959114 42.3125 34.0625 C30.73159213 25.33273293 18.39005473 18.89324775 5.03515625 13.3125 C2 12 2 12 1 11 C0.76636119 9.15108054 0.58696365 7.29511969 0.4375 5.4375 C0.35371094 4.42558594 0.26992188 3.41367188 0.18359375 2.37109375 C0.12300781 1.58863281 0.06242187 0.80617188 0 0 Z " fill="#EEEAED" transform="translate(306,123)"/>
<path d="M0 0 C9.64848041 -0.28377884 9.64848041 -0.28377884 13 2 C14.12031684 5.78106934 14.58868698 7.90672417 12.6875 11.4375 C8.48264763 13.88218161 4.81185103 13.25325532 0 13 C0 8.71 0 4.42 0 0 Z " fill="#A59DCB" transform="translate(311,406)"/>
<path d="M0 0 C0.66 0 1.32 0 2 0 C3.00460531 2.12282669 4.00355602 4.24833021 5 6.375 C5.556875 7.55835938 6.11375 8.74171875 6.6875 9.9609375 C8 13 8 13 8 15 C2.72 15 -2.56 15 -8 15 C-2.03225806 2.90322581 -2.03225806 2.90322581 0 0 Z " fill="#6E5DB2" transform="translate(85,346)"/>
<path d="M0 0 C5.0008285 4.28642443 7.22165168 9.04639645 10 15 C4.72 15 -0.56 15 -6 15 C-4.72936448 11.18809343 -3.51749676 7.73849288 -1.875 4.125 C-1.52179688 3.34382813 -1.16859375 2.56265625 -0.8046875 1.7578125 C-0.53914063 1.17773438 -0.27359375 0.59765625 0 0 Z " fill="#6E5DB3" transform="translate(425,346)"/>
<path d="M0 0 C3.58880268 4.30254214 4.52200925 8.6510811 6 14 C2.7 14 -0.6 14 -4 14 C-3.36843005 8.94744036 -1.86540627 4.70406799 0 0 Z " fill="#9992BD" transform="translate(253,418)"/>
</svg>
