<svg width="60" height="61" viewBox="0 0 60 61" fill="none" xmlns="http://www.w3.org/2000/svg">
<path d="M51.8138 35.0319C54.307 23.4418 46.9325 12.0251 35.3424 9.5319C23.7523 7.03874 12.3356 14.4133 9.8424 26.0034C7.34924 37.5934 14.7238 49.0102 26.3138 51.5034C37.9039 53.9965 49.3207 46.622 51.8138 35.0319Z" fill="#F5F5F5"/>
<g clip-path="url(#clip0_1556_42603)">
<path d="M49.3333 37.2079L46.08 33.0587C45.7067 32.6797 45.1933 32.4631 44.6667 32.4631H40V44.6467H49.4667C50.5 44.6467 51.3333 43.8006 51.3333 42.7515V39.2318C51.3333 38.1082 50.44 37.2012 49.3333 37.2079Z" fill="white" stroke="#C6A787" stroke-width="1.4" stroke-miterlimit="10"/>
<path d="M42.666 38.5549H45.9993L46.666 37.8781L44.666 35.1706H42.666V38.5549Z" fill="white" stroke="#C6A787" stroke-width="1.4" stroke-miterlimit="10"/>
<path d="M47.3392 44.6467C47.3392 46.1358 46.1459 47.3474 44.6725 47.3474C43.1992 47.3474 42.0059 46.1358 42.0059 44.6467C42.0059 43.1576 43.1992 41.946 44.6725 41.946C46.1459 41.946 47.3392 43.1576 47.3392 44.6467Z" fill="#E9EAEB" stroke="#C6A787" stroke-width="1.4" stroke-miterlimit="10"/>
<path d="M18.666 37.8779V25.6943H39.9993V44.6466H18.666V39.9085" fill="white"/>
<path d="M18.666 37.8779V25.6943H39.9993V44.6466H18.666V39.9085" stroke="#C6A787" stroke-width="1.4" stroke-miterlimit="10"/>
<path d="M27.3392 44.6467C27.3392 46.1358 26.1459 47.3474 24.6725 47.3474C23.1992 47.3474 22.0059 46.1358 22.0059 44.6467C22.0059 43.1576 23.1992 41.946 24.6725 41.946C26.1459 41.946 27.3392 43.1576 27.3392 44.6467Z" fill="#E9EAEB" stroke="#C6A787" stroke-width="1.4" stroke-miterlimit="10"/>
<path d="M18.6673 28.4019H15.334" stroke="#C6A787" stroke-width="2" stroke-miterlimit="10"/>
<path d="M16 33.14H10" stroke="#C6A787" stroke-width="1.4" stroke-miterlimit="10"/>
<path d="M12.666 28.4019H13.9993" stroke="#C6A787" stroke-width="2" stroke-miterlimit="10"/>
<path d="M19.3333 37.878H10" stroke="#C6A787" stroke-width="1.4" stroke-miterlimit="10"/>
</g>
<path d="M39.9491 29.6501C44.8182 29.6501 48.7654 25.7029 48.7654 20.8338C48.7654 15.9647 44.8182 12.0175 39.9491 12.0175C35.08 12.0175 31.1328 15.9647 31.1328 20.8338C31.1328 25.7029 35.08 29.6501 39.9491 29.6501Z" fill="white"/>
<path d="M34.2441 27.5496C35.7851 28.8529 37.7707 29.6502 39.9479 29.6502C44.816 29.6502 48.7642 25.702 48.7642 20.8339C48.7642 15.9657 44.816 12.0176 39.9479 12.0176C37.7707 12.0176 35.7851 12.8072 34.2441 14.1182" stroke="#C6A787" stroke-width="1.4" stroke-miterlimit="10" stroke-linecap="round"/>
<path d="M37.2656 16.6176V19.6842" stroke="#C6A787" stroke-width="1.4" stroke-miterlimit="10" stroke-linecap="round"/>
<path d="M42.6328 16.6176V19.6842" stroke="#C6A787" stroke-width="1.4" stroke-miterlimit="10" stroke-linecap="round"/>
<path d="M25.3827 29.6502C30.2518 29.6502 34.199 25.703 34.199 20.8339C34.199 15.9648 30.2518 12.0176 25.3827 12.0176C20.5136 12.0176 16.5664 15.9648 16.5664 20.8339C16.5664 25.703 20.5136 29.6502 25.3827 29.6502Z" fill="white"/>
<path d="M19.6777 27.5497C21.2187 28.8529 23.2043 29.6502 25.3815 29.6502C30.2496 29.6502 34.1978 25.7021 34.1978 20.8339C34.1978 15.9658 30.2496 12.0176 25.3815 12.0176C23.2043 12.0176 21.2187 12.8073 19.6777 14.1182" stroke="#C6A787" stroke-width="1.4" stroke-miterlimit="10" stroke-linecap="round"/>
<path d="M22.6992 16.6177V19.6842" stroke="#C6A787" stroke-width="1.4" stroke-miterlimit="10" stroke-linecap="round"/>
<path d="M28.0645 16.6177V19.6843" stroke="#C6A787" stroke-width="1.4" stroke-miterlimit="10" stroke-linecap="round"/>
<path d="M10.8163 29.6501C15.6854 29.6501 19.6326 25.7029 19.6326 20.8338C19.6326 15.9647 15.6854 12.0175 10.8163 12.0175C5.94719 12.0175 2 15.9647 2 20.8338C2 25.7029 5.94719 29.6501 10.8163 29.6501Z" fill="#EEDECE" stroke="#C6A787" stroke-width="1.4" stroke-miterlimit="10" stroke-linecap="round"/>
<path d="M8.13281 16.6174V19.6839" stroke="#C6A787" stroke-width="1.4" stroke-miterlimit="10" stroke-linecap="round"/>
<path d="M13.5 16.6174V19.6839" stroke="#C6A787" stroke-width="1.4" stroke-miterlimit="10" stroke-linecap="round"/>
<path d="M15.4301 22.7507C14.6635 24.5523 12.8696 25.8172 10.7767 25.8172C8.68375 25.8172 6.89749 24.5523 6.13086 22.7507" stroke="#C6A787" stroke-width="1.4" stroke-miterlimit="10" stroke-linecap="round"/>
<path d="M44.2993 22.7506C43.5326 24.5522 41.7387 25.8171 39.6458 25.8171C37.5529 25.8171 35.7666 24.5522 35 22.7506" stroke="#C6A787" stroke-width="1.4" stroke-miterlimit="10" stroke-linecap="round"/>
<path d="M30.2993 22.7506C29.5326 24.5522 27.7387 25.8171 25.6458 25.8171C23.5529 25.8171 21.7666 24.5522 21 22.7506" stroke="#C6A787" stroke-width="1.4" stroke-miterlimit="10" stroke-linecap="round"/>
<defs>
<clipPath id="clip0_1556_42603">
<rect width="42" height="23" fill="white" transform="translate(10 25.0175)"/>
</clipPath>
</defs>
</svg>
