<svg width="60" height="61" viewBox="0 0 60 61" fill="none" xmlns="http://www.w3.org/2000/svg">
<path d="M47 30.0176H16V51.0176H47V30.0176Z" fill="white"/>
<path d="M47 38.2676V51.0176H16V30.0176H41.8333" stroke="#C6A787" stroke-width="1.4" stroke-miterlimit="10"/>
<path d="M36 30.0176H28V34.0176H36V30.0176Z" fill="#E9EAEB" stroke="#C6A787" stroke-width="1.4" stroke-miterlimit="10"/>
<path d="M19 48.0176H20" stroke="#C6A787" stroke-width="1.4" stroke-miterlimit="10"/>
<path d="M22 48.0176H23" stroke="#C6A787" stroke-width="1.4" stroke-miterlimit="10"/>
<path d="M25 48.0176H26" stroke="#C6A787" stroke-width="1.4" stroke-miterlimit="10"/>
<path d="M36.141 14.3828H33.1347V10.8306L32.4889 10.0176L22 18.7773L32.4443 27.1123L33.1347 26.2993V23.1719H35.9629C40.4984 23.1719 44.4549 26.1895 44.4549 30.6572C44.4549 35.125 40.6617 39.2852 36.1336 39.2852H35.3542V40.0176H36.1336C44.0467 40.0176 50 35.9233 50 28.1157C50 20.3081 44.0541 14.3828 36.141 14.3828Z" fill="white" stroke="#C6A787" stroke-width="1.4" stroke-miterlimit="10"/>
</svg>
