<svg width="60" height="61" viewBox="0 0 60 61" fill="none" xmlns="http://www.w3.org/2000/svg">
<path d="M51.8158 35.0318C54.309 23.4417 46.9344 12.025 35.3444 9.53184C23.7543 7.03868 12.3375 14.4132 9.84435 26.0033C7.35119 37.5934 14.7257 49.0101 26.3158 51.5033C37.9059 53.9965 49.3226 46.6219 51.8158 35.0318Z" fill="#F5F5F5"/>
<g clip-path="url(#clip0_1556_42636)">
<path d="M29.5 19.0176H48V49.0176H20V36.0176L29.5 19.0176Z" fill="white"/>
<path d="M20.2273 39.4679C20.2273 39.0963 19.9226 38.8014 19.551 38.8014C19.1795 38.8014 18.8845 39.0963 18.8845 39.4679V49.3418C18.8845 49.713 19.1798 50.018 19.551 50.018H48.1655C48.5367 50.018 48.832 49.7133 48.832 49.3418V32.3645C48.832 31.9929 48.5371 31.698 48.1655 31.698C47.794 31.698 47.4893 31.9929 47.4893 32.3645V48.6749H20.2273V39.4679Z" fill="#C6A787"/>
<path d="M42.222 47.5989C42.222 47.9701 42.5267 48.2752 42.8983 48.2752C43.2698 48.2752 43.5645 47.9705 43.5645 47.5989V39.0201C43.5645 37.7442 43.0505 36.5825 42.2029 35.7447C41.3647 34.9069 40.2031 34.3828 38.9272 34.3828C37.6513 34.3828 36.4896 34.9069 35.6518 35.7447C34.8136 36.5825 34.2899 37.7442 34.2899 39.0201V47.5989C34.2899 47.9701 34.5946 48.2752 34.9658 48.2752C35.3373 48.2752 35.6326 47.9705 35.6326 47.5989V39.0201C35.6326 38.1158 36.0038 37.2964 36.6038 36.6971C37.2038 36.0971 38.0228 35.7256 38.9275 35.7256C39.8322 35.7256 40.6606 36.0968 41.2603 36.6971C41.8508 37.2964 42.222 38.1158 42.222 39.0201V47.5989Z" fill="#C6A787"/>
<path d="M29.9678 42.2383H23.7976V37.5439H29.9678V42.2383ZM23.1214 43.581H30.6343C31.0055 43.581 31.3105 43.2857 31.3105 42.9145V36.868C31.3105 36.4968 31.0059 36.2015 30.6343 36.2015H23.1214C22.7502 36.2015 22.4452 36.4968 22.4452 36.868V42.9142C22.4452 43.2857 22.7502 43.581 23.1214 43.581Z" fill="#C6A787"/>
<path fill-rule="evenodd" clip-rule="evenodd" d="M37.8042 43.9902C37.4424 43.9902 37.1377 43.6858 37.1377 43.324C37.1377 42.9528 37.4424 42.6478 37.8042 42.6478C38.1754 42.6478 38.4805 42.9525 38.4805 43.324C38.4805 43.6855 38.1758 43.9902 37.8042 43.9902Z" fill="#C6A787"/>
<path d="M37.0238 27.8319V27.7936L36.576 19.4812H39.157L40.6804 27.8699C40.671 28.403 40.4708 28.8794 40.1376 29.2318C39.8141 29.5747 39.3569 29.784 38.8523 29.784C38.3568 29.784 37.9002 29.5747 37.5764 29.2318C37.2334 28.87 37.0335 28.3748 37.0335 27.8319H37.0238ZM35.243 19.4815L35.681 27.8319C35.681 28.3748 35.4714 28.87 35.1382 29.2318C34.8143 29.5747 34.3574 29.784 33.8529 29.784C33.3577 29.784 32.9008 29.5747 32.577 29.2318C32.234 28.87 32.0341 28.3748 32.0341 27.8319H32.0247L32.2535 23.6424C32.2726 23.2712 31.9867 22.9568 31.6152 22.9376C31.244 22.9185 30.9295 23.2044 30.9107 23.5756L30.6917 27.7936V27.8319H30.6823C30.6823 28.3748 30.4727 28.87 30.1394 29.2318C29.8159 29.5747 29.3587 29.784 28.8541 29.784C28.4832 29.784 28.1879 30.0887 28.1879 30.4599C28.1879 30.8312 28.4832 31.1362 28.8541 31.1362C29.7396 31.1362 30.5398 30.7552 31.1109 30.1556C31.1966 30.0605 31.2823 29.9654 31.3585 29.8603C31.4344 29.9654 31.5201 30.0605 31.6058 30.1556C32.1772 30.7552 32.9774 31.1362 33.8532 31.1362C34.7387 31.1362 35.5386 30.7552 36.11 30.1556C36.1957 30.0605 36.2813 29.9654 36.3576 29.8603C36.4339 29.9654 36.5192 30.0605 36.6049 30.1556C37.1763 30.7552 37.9762 31.1362 38.8523 31.1362C39.7378 31.1362 40.5377 30.7552 41.1091 30.1556C41.1948 30.0605 41.2804 29.9654 41.3567 29.8603C41.433 29.9654 41.5186 30.0605 41.6043 30.1556C42.1757 30.7552 42.9756 31.1362 43.8514 31.1362C44.7369 31.1362 45.5371 30.7552 46.1082 30.1556C46.1939 30.0605 46.2795 29.9654 46.3558 29.8603C46.432 29.9654 46.5177 30.0605 46.6034 30.1556C47.1745 30.7552 47.9743 31.1362 48.8504 31.1362C49.6026 31.1362 50.2883 30.86 50.8311 30.4126C51.374 29.9654 51.7741 29.3275 51.936 28.5941C51.9928 28.3563 52.012 28.1275 51.9928 27.8991C51.974 27.6707 51.9166 27.4422 51.8215 27.2134L49.0409 20.4339C48.7554 19.7291 48.2888 19.158 47.7173 18.7582C47.1365 18.3581 46.4508 18.1391 45.7081 18.1391H33.4245C33.0533 18.1391 32.7486 18.4438 32.7486 18.8153C32.7486 19.1771 33.0533 19.4818 33.4245 19.4818H35.243V19.4815ZM40.5088 19.4815H43.2322L45.6792 27.9082C45.6601 28.4225 45.4602 28.8891 45.1363 29.2318C44.8125 29.5744 44.3556 29.784 43.8507 29.784C43.3555 29.784 42.8986 29.5747 42.5748 29.2318C42.2318 28.87 42.0319 28.3748 42.0319 27.8319H42.0225C42.0225 27.7936 42.0225 27.7462 42.0131 27.7079L40.5088 19.4815ZM44.6223 19.4815H45.7078C46.1744 19.4815 46.603 19.6145 46.9551 19.8625C47.3169 20.1195 47.6122 20.4813 47.8023 20.9479L50.5832 27.7177C50.6212 27.8128 50.6497 27.9082 50.6595 28.0036C50.6595 28.0986 50.6595 28.194 50.6309 28.2985C50.5358 28.7366 50.2977 29.1175 49.9738 29.3839C49.6597 29.6413 49.2788 29.7837 48.8501 29.7837C48.3549 29.7837 47.8981 29.5744 47.5742 29.2314C47.2312 28.8696 47.0313 28.3744 47.0313 27.8316H47.0219C47.0219 27.7647 47.0125 27.7076 47.0028 27.6411L44.6223 19.4815Z" fill="#C6A787"/>
<path d="M10.3418 22.7284L18.9875 37.3537C19.178 37.6772 19.5875 37.7821 19.9019 37.5916C20.0068 37.5345 20.0921 37.4488 20.1492 37.3443L28.7861 22.7284C28.7955 22.7092 28.8053 22.6904 28.8147 22.6807C29.2336 21.9188 29.5575 21.0907 29.7859 20.2337C30.0049 19.3767 30.1191 18.4912 30.1191 17.5771C30.1191 14.6635 28.9383 12.0261 27.0339 10.1122C25.1201 8.19806 22.4826 7.01758 19.5593 7.01758C16.6457 7.01758 14.0079 8.19806 12.0937 10.1119C10.1796 12.0257 8.99909 14.6635 8.99909 17.5771C8.99909 18.4912 9.12271 19.3767 9.34208 20.2337C9.57085 21.1095 9.9041 21.9379 10.3324 22.7092L10.3418 22.7284ZM19.5593 11.1688C17.7886 11.1688 16.1885 11.883 15.0268 13.0443C13.8651 14.206 13.1509 15.8057 13.1509 17.5768C13.1509 19.3478 13.8651 20.9476 15.0268 22.1092C16.1885 23.2709 17.7886 23.9945 19.5593 23.9945C21.3307 23.9945 22.9398 23.2709 24.1015 22.1092C25.2538 20.9476 25.977 19.3478 25.977 17.5768C25.977 15.8057 25.2538 14.206 24.1015 13.0443C22.9395 11.883 21.3307 11.1688 19.5593 11.1688ZM15.9789 13.9967C16.8929 13.0732 18.1594 12.5112 19.5589 12.5112C20.9588 12.5112 22.2253 13.0732 23.1491 13.9967C24.0632 14.9108 24.6346 16.1772 24.6346 17.5768C24.6346 18.9766 24.0632 20.2431 23.1491 21.1666C22.2253 22.0807 20.9588 22.6424 19.5589 22.6424C18.1594 22.6424 16.8926 22.0807 15.9789 21.1666C15.0644 20.2431 14.493 18.9766 14.493 17.5768C14.493 16.1772 15.0648 14.9111 15.9789 13.9967ZM19.5593 35.6969L11.4941 22.0427C11.1229 21.3762 10.837 20.6526 10.6371 19.8907C10.4466 19.1574 10.3418 18.386 10.3418 17.5768C10.3418 15.0347 11.3799 12.7302 13.0458 11.0639C14.7127 9.3977 17.0169 8.35998 19.5593 8.35998C22.1114 8.35998 24.4156 9.3977 26.0818 11.0639C27.7488 12.7302 28.7767 15.0347 28.7767 17.5768C28.7767 18.386 28.6817 19.1574 28.4912 19.8907C28.291 20.6429 28.0054 21.3571 27.6436 22.0236L27.6342 22.0427L19.5593 35.6969Z" fill="#C6A787"/>
</g>
<defs>
<clipPath id="clip0_1556_42636">
<rect width="43" height="43" fill="white" transform="matrix(-1 0 0 1 52 7.01758)"/>
</clipPath>
</defs>
</svg>
